<?xml version="1.0" encoding="UTF-8"?>
<svg id="Layer_2" data-name="Layer 2" xmlns="http://www.w3.org/2000/svg" viewBox="0 0 450 103">
  <defs>
    <style>
      .cls-1 {
        fill: #fff;
      }

      .cls-2 {
        fill: #231f20;
      }
    </style>
  </defs>
  <g id="Layer_1-2" data-name="Layer 1">
    <rect class="cls-2" x="0" y="0" width="450" height="103" rx="51.5" ry="51.5"/>
    <path class="cls-1" d="M341.31,13h10.91c.15,0,.3,.04,.44,.1l67.1,40.14c1.28,.63,1.26,3.29-.04,3.87l-51.56,19.8c-.13,.06-.27,.09-.4,.09h-10.93c-1.3,0-1.88-2.37-.89-3.59l29.4-16.95c.64-.79,.67-2.22,.05-3.05l-45.02-36.89c-.93-1.25-.33-3.52,.94-3.52Z"/>
    <g>
      <path class="cls-1" d="M82.89,65.72c-.3,1.26-1.5,2.28-2.76,2.28h-12.82c-1.28,0-2.07-1.03-1.76-2.31l2.86-13.69h-8.4l-2.86,13.69c-.3,1.28-1.52,2.31-2.74,2.31h-12.8c-1.26,0-2.1-1.02-1.8-2.28l6.66-31.5c.24-1.2,1.5-2.22,2.76-2.22h12.8c1.22,0,2.02,1.04,1.77,2.26l-2.93,13.74h8.43l2.93-13.74c.24-1.22,1.47-2.26,2.75-2.26h12.78c1.26,0,2.04,1.02,1.8,2.22l-6.66,31.5Z"/>
      <path class="cls-1" d="M120.51,73.14c-.55,2.73-4.01,4.86-7.65,4.86h-21.48c-3.86,0-6.49-2.25-5.91-5.14l.39-1.93c.26-1.03,1.29-1.93,2.38-1.93h11.11c.94,0,1.5,.78,1.28,1.67l-.17,.78c-.33,1.72,.61,3.11,2.17,3.11s3.06-1.39,3.39-3.11l1.39-6.45h-13.52c-3.63,0-6.11-2.18-5.56-4.84l4.11-19.35c.24-1.03,1.21-1.81,2.24-1.81h10.65c1.03,0,1.64,.79,1.4,1.82l-3.77,17.8c-.43,1.94,.61,3.46,2.31,3.46s3.34-1.52,3.77-3.46l3.77-17.8c.24-1.03,1.22-1.82,2.25-1.82h10.93c1.03,0,1.64,.79,1.4,1.82l-6.86,32.32Z"/>
      <path class="cls-1" d="M161.71,63.17c-.6,2.66-3.99,4.83-7.61,4.83h-9.53c-1.67,0-3.09-.43-4.07-1.17l-2.04,9.32c-.18,1.05-1.17,1.85-2.22,1.85h-10.72c-1.03,0-1.64-.79-1.46-1.82l7.53-35.35c.24-1.03,1.22-1.82,2.25-1.82h10.66l1.09,1.39c1.39-.85,3.14-1.39,4.95-1.39h9.73c3.63,0,6.1,2.17,5.56,4.83l-4.11,19.33Zm-10.96-16.69c.36-1.92-.6-3.42-2.28-3.42s-3.36,1.5-3.72,3.42l-2.94,13.56c-.36,1.92,.6,3.42,2.28,3.42s3.36-1.5,3.72-3.42l2.94-13.56Z"/>
      <path class="cls-1" d="M200.68,63.35c-.58,2.55-3.83,4.65-7.32,4.65h-21.85c-3.62,0-6.16-2.18-5.56-4.83l4.11-19.33c.54-2.66,3.99-4.83,7.61-4.83h21.7c3.53,0,5.94,2.12,5.41,4.71l-1.24,5.59c-.53,2.59-3.88,4.71-7.41,4.71h-13.95l-1.26,6.04c-.36,1.92,.6,3.42,2.28,3.42s3.24-1.44,3.72-3.3c.24-1.02,2.16-1.16,2.16-1.16h10.72c.99,0,1.63,.76,1.39,1.74l-.52,2.61Zm-11.71-12.35l.9-4.08c.36-1.92-.6-3.42-2.28-3.42s-3.36,1.5-3.72,3.42l-.9,4.08h6Z"/>
      <path class="cls-1" d="M240.4,48.2c-.24,1.02-1.2,1.8-2.16,1.8h-8.1c-1.03,0-1.7-.79-1.45-1.82l.36-1.58c.36-1.94-.61-3.45-2.3-3.45s-3.39,1.52-3.76,3.45l-4.18,19.58c-.24,1.03-1.15,1.82-2.18,1.82h-10.75c-1.03,0-1.69-.79-1.45-1.81l5.38-25.38c.24-1.03,1.21-1.81,2.24-1.81h10.75l1.08,1.38c1.38-.84,3.13-1.38,4.93-1.38h7.03c3.61,0,6.07,2.16,5.53,4.81l-.96,4.39Z"/>
      <path class="cls-1" d="M271.22,35.24c-.16,.93-1.1,1.76-1.98,1.76h-5.95c-1.9,0-3.48,1.39-3.86,3.23l-.38,1.77h7.25c.95,0,1.61,.77,1.43,1.79l-.36,1.43c-.18,1.01-1.19,1.79-2.14,1.79h-7.11l-4.07,19.18c-.24,.97-1.15,1.82-2.18,1.82h-10.76c-.96,0-1.68-.84-1.44-1.8l6.24-29.4c.72-3.24,4.8-4.8,7.56-4.8h16.82c.88,0,1.48,.71,1.32,1.65l-.38,1.59Z"/>
      <path class="cls-1" d="M301.93,63.17c-.6,2.66-3.99,4.83-7.61,4.83h-21.87c-3.62,0-6.16-2.18-5.56-4.83l4.11-19.33c.54-2.66,3.99-4.83,7.61-4.83h21.87c3.63,0,6.1,2.17,5.56,4.83l-4.11,19.33Zm-11.03-16.69c.36-1.92-.6-3.42-2.28-3.42s-3.36,1.5-3.72,3.42l-2.94,13.56c-.36,1.92,.6,3.42,2.28,3.42s3.36-1.5,3.72-3.42l2.94-13.56Z"/>
      <path class="cls-1" d="M332.88,66.19c-.54,1.03-1.57,1.81-2.54,1.81h-16.37c-.97,0-1.75-.79-1.81-1.81l-2.96-25.38c0-1.03,.85-1.81,1.81-1.81h11.18c1.03,0,1.81,.78,1.81,1.81l.12,18.06,7.67-18.06c.48-1.03,1.63-1.81,2.66-1.81h11.18c.97,0,1.45,.78,.97,1.81l-13.71,25.38Z"/>
    </g>
  </g>
</svg>