<?xml version="1.0" encoding="UTF-8"?>
<svg xmlns="http://www.w3.org/2000/svg" viewBox="0 0 1200 350">
  <defs>
    <style>
        .text {
        fill: #5A5A5A;
      }

      .arrow {
        fill: #5A5A5A;
      }
    </style>
  </defs>
  <polygon class="arrow" points="517.6 115.9 502.4 94.9 65 94.9 65 77.9 510.3 77.9 538.2 115.9 517.6 115.9"/>
  <polygon class="arrow" points="1092 103.2 1135.6 128.7 1092 154.3 1092 103.2"/>
  <g>
    <path class="text" d="M133,180.9h-36v33h-32v-83h32v32h36v-32h32v83h-32v-33Z"/>
    <path class="text" d="M218,184.3l-42.3-54.4h36.2l22.6,32.3,22.6-32.3h36.2l-42.3,54.4v29.6h-33v-29.6Z"/>
    <path class="text" d="M304,129.9h50.6c33.6,0,47.2,12.7,47.2,29.5s-13.7,29.5-47.2,29.5h-18.6v25h-32v-84Zm49.2,39c10.8,0,14.9-4.2,14.9-9.5s-4.1-9.5-14.9-9.5h-17.2v19h17.2Z"/>
    <path class="text" d="M412,129.9h85v20h-52v13h47v17h-48v14h54v20h-86v-84Z"/>
    <path class="text" d="M520,129.9h50.6c33.7,0,47.4,12.6,47.4,29.3s-6.3,21.5-21.8,26.4l23,28.3h-32.7l-19.2-25h-15.3v25h-32v-84Zm49.2,39c10.8,0,14.9-4.2,14.9-9.5s-4.1-9.5-14.9-9.5h-17.2v19h17.2Z"/>
    <path class="text" d="M640,129.9h80v20h-48v14h40v18h-40v32h-32v-84Z"/>
    <path class="text" d="M728.3,172.1c0-24.6,21.7-43,57.5-43s57.3,18.5,57.3,43-21.7,43.1-57.3,43.1-57.5-18.7-57.5-43.1Zm57.5,23.6c17,0,24.6-10.5,24.6-23.6s-7.5-23.5-24.6-23.5-24.7,10.2-24.7,23.5,7.5,23.6,24.7,23.6Z"/>
    <path class="text" d="M846.9,129.9h32.9l27.9,62h1.7l27.9-62h32.9l-41,84h-41.2l-41-84Z"/>
  </g>
  <polygon class="arrow" points="629 272.1 597.4 228.9 628.7 228.9 642 245.9 957.9 245.8 1021.4 115.9 1092 115.9 1092 141.9 1037.4 141.9 973.9 271.9 629 272.1"/>
</svg>